<svg width="266" height="49" viewBox="0 0 266 49" fill="none" xmlns="http://www.w3.org/2000/svg">
<path fill-rule="evenodd" clip-rule="evenodd" d="M87.6574 7.36715e-05V48.1179H76.3387V2.40545L87.6574 7.36715e-05ZM55.4303 36.796C58.559 36.796 61.0903 34.2639 61.0903 31.1351C61.0903 28.0055 58.559 25.4741 55.4303 25.4741C52.3023 25.4741 49.7709 28.0055 49.7709 31.1351C49.7709 34.2639 52.3023 36.796 55.4303 36.796ZM55.4303 13.6646C65.0675 13.6646 72.8959 21.4797 72.8959 31.1351C72.8959 40.7897 65.0668 48.6055 55.4303 48.6055C45.7783 48.6055 37.9647 40.7897 37.9647 31.1351C37.9647 21.4797 45.7938 13.6646 55.4303 13.6646ZM30.2462 22.6754C32.9816 25.3798 34.6793 29.1224 34.6631 33.2575C34.6631 41.466 28.0139 48.1178 19.8077 48.1178H0V0H17.607C25.8132 0 32.4624 6.6518 32.4624 14.8595C32.4624 17.7217 31.6611 20.4107 30.2462 22.6754ZM19.8231 36.796C21.7727 36.796 23.3606 35.2076 23.3606 33.2575C23.3606 31.3082 21.7727 29.7198 19.8231 29.7198H11.3349V36.796H19.8231ZM11.3349 11.3218V18.398H17.6232C19.572 18.398 21.1592 16.8096 21.1592 14.8595C21.1592 12.9102 19.572 11.3218 17.6232 11.3218H11.3349ZM109.037 25.6312H103.393V34.516C103.393 37.205 104.259 39.186 106.522 39.186C107.984 39.186 109.053 38.856 109.053 38.856V47.1904C109.053 47.1904 106.711 48.6057 103.535 48.6057H103.393C103.253 48.6057 103.127 48.5895 102.985 48.5895H102.875C102.812 48.5895 102.733 48.574 102.67 48.574C96.3501 48.2432 92.0592 44.2649 92.0592 37.3619V8.06644L103.378 5.66107V14.3094H109.037V25.6312Z" fill="black"/>
<path fill-rule="evenodd" clip-rule="evenodd" d="M174.152 36.7969C177.286 36.7969 179.822 34.2648 179.822 31.1359C179.822 28.0063 177.286 25.4749 174.152 25.4749C171.017 25.4749 168.481 28.0063 168.481 31.1359C168.481 34.2648 171.017 36.7969 174.152 36.7969ZM174.152 13.6651C183.807 13.6651 191.651 21.4803 191.651 31.1359C191.651 40.7908 183.807 48.6067 174.152 48.6067C164.481 48.6067 156.652 40.7908 156.652 31.1359C156.652 21.4803 164.496 13.6651 174.152 13.6651ZM211.185 36.7969C214.319 36.7969 216.855 34.2648 216.855 31.1359C216.855 28.0063 214.319 25.4749 211.185 25.4749C208.05 25.4749 205.514 28.0063 205.514 31.1359C205.514 34.2648 208.05 36.7969 211.185 36.7969ZM211.185 13.6651C220.84 13.6651 228.685 21.4803 228.685 31.1359C228.685 40.7908 220.84 48.6067 211.185 48.6067C201.514 48.6067 193.685 40.7908 193.685 31.1359C193.685 21.4803 201.53 13.6651 211.185 13.6651ZM138.078 29.7285V48.1188H126.737V0H157.009V11.3375H138.078V18.3903H153.576V29.7285H138.078ZM254.219 45.2127C252.295 46.9989 249.827 48.1188 246.774 48.1188C237.909 48.1188 230.722 40.4067 230.722 30.8918C230.722 21.3777 237.909 13.6649 246.774 13.6649C249.827 13.6649 252.295 14.7644 254.219 16.5309V0H265.56V48.1188H254.219V45.2127ZM248.066 36.6052C251.227 36.6052 253.789 34.0472 253.789 30.8918C253.789 27.7364 251.227 25.1792 248.066 25.1792C244.906 25.1792 242.344 27.7364 242.344 30.8918C242.344 34.0472 244.906 36.6052 248.066 36.6052Z" fill="black"/>
</svg>
