<svg width="182" height="51" viewBox="0 0 182 51" fill="none" xmlns="http://www.w3.org/2000/svg">
<path d="M0 26.0581V25.9282C0 12.7483 10.0522 1.59366 24.2291 1.59366C31.2775 1.59366 35.9586 3.27507 40.2547 6.3742C40.7766 6.76471 41.2001 7.27221 41.4913 7.85613C41.7826 8.44005 41.9335 9.08417 41.932 9.73701C41.932 10.2743 41.8264 10.8063 41.6211 11.3026C41.4159 11.799 41.1151 12.2499 40.736 12.6296C40.3568 13.0094 39.9067 13.3105 39.4114 13.5157C38.9161 13.721 38.3853 13.8264 37.8493 13.8259C36.7744 13.8259 35.9586 13.352 35.3144 12.8782C32.3067 10.6809 28.9979 9.17527 23.9279 9.17527C15.2518 9.17527 8.67992 16.7989 8.67992 25.7982V25.9282C8.67992 35.6192 15.0345 42.769 24.6598 42.769C29.0817 42.769 33.1225 41.3474 36.0005 39.1922V30.3648H26.7221C24.7018 30.3648 23.0245 28.8133 23.0245 26.788C23.0245 24.7626 24.7018 23.173 26.7221 23.173H39.824C42.1874 23.173 43.9905 24.9805 43.9905 27.3497V39.922C43.9905 42.2913 43.0489 43.9727 41.1124 45.1803C36.1784 48.5254 30.3571 50.3105 24.4006 50.3047C9.66723 50.2665 0 39.7577 0 26.0581ZM51.34 4.04698C51.3359 3.51409 51.4377 2.98571 51.6394 2.49263C51.841 1.99956 52.1386 1.55165 52.5147 1.175C52.8908 0.79835 53.3378 0.500497 53.8299 0.298793C54.322 0.0970901 54.8491 -0.00443079 55.3807 0.000148277C57.6527 0.000148277 59.4596 1.81148 59.4596 4.05081V45.742C59.4596 48.0234 57.6527 49.7888 55.3807 49.7888C54.8488 49.7934 54.3213 49.6918 53.829 49.4898C53.3367 49.2879 52.8894 48.9897 52.5133 48.6126C52.1372 48.2356 51.8397 47.7872 51.6383 47.2937C51.4368 46.8002 51.3354 46.2714 51.34 45.7382V4.04698ZM65.7722 31.9124V31.7863C65.7722 21.6215 73.8079 13.2221 84.6797 13.2221C95.5439 13.2221 103.538 21.4916 103.538 31.6564V31.7863C103.538 41.8633 95.5058 50.3047 84.5501 50.3047C73.7622 50.2627 65.7722 41.9894 65.7722 31.9124ZM95.4182 31.9163V31.7863C95.4182 25.5422 90.9086 20.3299 84.5501 20.3299C78.0164 20.3299 73.8956 25.4543 73.8956 31.6144V31.7443C73.8956 37.9464 78.4052 43.1129 84.6759 43.1129C91.2516 43.1549 95.4182 38.0305 95.4182 31.9163ZM123.818 50.1328H123.429C121.195 50.1328 119.731 48.7112 118.79 46.5598L106.972 19.4662C106.759 18.8663 106.503 18.1746 106.503 17.4409C106.503 15.4194 108.307 13.524 110.544 13.524C112.774 13.524 113.891 14.8156 114.581 16.497L123.688 40.0558L132.966 16.3671C133.569 14.9455 134.644 13.524 136.79 13.524C139.024 13.524 140.743 15.2054 140.743 17.4447C140.743 18.1746 140.484 18.9962 140.27 19.3822L128.453 46.5598C127.511 48.6692 126.051 50.1328 123.818 50.1328ZM143.709 31.9163V31.7863C143.709 21.6215 151.74 13.2221 162.612 13.2221C173.48 13.2221 181.474 21.4954 181.474 31.6564V31.7863C181.474 41.8633 173.438 50.3047 162.483 50.3047C151.657 50.2627 143.709 41.9932 143.709 31.9163ZM173.351 31.9163V31.7863C173.351 25.5422 168.841 20.3299 162.483 20.3299C155.953 20.3299 151.828 25.4543 151.828 31.6144V31.7443C151.828 37.9464 156.338 43.1129 162.654 43.1129C169.184 43.1549 173.351 38.0305 173.351 31.9163Z" fill="black"/>
</svg>
