<svg width="40" height="16" viewBox="0 0 40 16" fill="none" xmlns="http://www.w3.org/2000/svg">
<path d="M37.7898 6.9379C38.4229 6.9129 38.8535 6.7379 38.9801 6.1379C39.0561 5.7879 38.8281 5.5629 38.4229 5.5379C38.4229 5.5379 37.258 5.4879 35.8905 5.4129C35.8905 5.4129 36.169 3.9379 36.2957 3.3379C36.3716 3.0379 36.1944 2.7379 35.8145 2.6629C35.4346 2.5629 34.5736 2.5629 34.295 2.5879C34.0418 2.6129 33.8138 2.7629 33.7632 3.0129C33.6366 3.6379 33.4846 4.3879 33.3074 5.3379C32.8009 5.3379 32.3197 5.3129 31.9905 5.3379C31.6866 5.3379 31.5346 5.5129 31.4587 5.7629C31.3827 6.0129 31.332 6.3879 31.332 6.7629C31.3067 7.0629 31.6359 7.1879 31.9651 7.1629C31.9651 7.1629 32.3703 7.1379 33.0035 7.1129C32.8768 7.6629 32.6489 9.1129 32.5729 10.0129C32.0158 11.8879 30.8255 13.2879 29.8125 13.2879C29.1794 13.2879 28.8249 12.9129 28.8249 11.8129C28.8249 10.2879 29.1794 8.3629 29.7112 6.4129C30.4457 4.6629 30.8762 2.7379 30.8762 1.8629C30.8762 1.5379 30.7749 1.1629 30.3697 1.0879C29.6606 0.937899 28.9515 0.962899 28.4703 1.1129C28.0398 1.2379 27.9638 1.6879 27.9132 1.9379C27.66 3.0879 27.2548 5.1129 26.9762 6.8879C26.3431 7.6379 25.6087 8.1629 24.8236 8.3129C24.7476 6.9379 24.2411 6.0129 23.4561 5.4879C23.2281 5.3379 22.9749 5.2129 22.6963 5.1379C22.3164 5.0129 21.8859 4.9629 21.4048 4.9629C18.0619 4.9629 15.9093 7.9129 15.9093 11.2129C15.9093 13.8879 17.4035 15.0129 19.5561 15.0129C22.1138 15.0129 23.9879 13.2379 24.697 9.9629C25.4061 9.8129 26.0392 9.4629 26.5963 8.9879C26.5963 8.9879 26.1911 11.0129 26.1911 12.2129C26.1911 14.0129 26.9762 15.0129 28.8249 15.0129C30.3444 15.0129 31.6612 13.9629 32.497 12.6629C32.7249 14.3379 33.6112 15.0129 35.0548 15.0129C36.3716 15.0129 37.6632 14.1879 38.5496 12.6879C38.7268 12.3879 38.8535 12.1379 38.7522 11.9879C38.4989 11.6879 37.9924 11.5379 37.8658 11.7879C37.2833 12.8629 36.6249 13.2879 35.9411 13.2879C35.384 13.2879 34.9535 12.9629 34.9535 12.0129C34.9535 10.6629 35.7385 6.9879 35.7385 6.9879C36.321 6.9879 37.0807 6.9629 37.7898 6.9379ZM22.2911 9.5379C21.9366 11.7379 20.9489 13.5629 19.8853 13.5629C19.1255 13.5629 18.5937 12.9129 18.5937 11.6129C18.5937 9.1129 19.5054 6.4379 21.1009 6.4379C21.2781 6.4379 21.4554 6.4629 21.582 6.5129C21.6074 6.5129 21.6074 6.5379 21.6327 6.5379C21.5061 6.8879 21.4807 7.2379 21.4554 7.6129C21.4554 8.1879 21.5567 8.9379 22.2911 9.5379C22.2911 9.5129 22.2911 9.5129 22.2911 9.5379Z" fill="black"/>
<path d="M32.9781 7.13789C32.9781 7.11289 32.9781 7.11289 32.9781 7.13789C32.8515 7.13789 32.8768 7.13789 32.9781 7.13789Z" fill="black"/>
<path d="M14.6431 1.01288C14.1872 1.01288 13.8074 1.03788 13.6048 1.06288C13.2249 1.11288 13.0729 1.46288 13.1236 1.83788C13.5288 7.06288 12.3638 13.1129 11.047 13.1129C10.0593 13.1129 9.78073 10.2879 9.78073 7.76288C9.78073 6.26288 9.85671 4.83788 9.90735 3.56288C9.93268 3.08788 9.75541 3.01288 9.40086 2.96288C8.86904 2.88788 8.5145 2.91288 7.98268 3.01288C7.57748 3.08788 7.47619 3.41288 7.07099 4.38788C4.99437 9.26288 2.99372 13.1629 2.99372 13.1629C2.4619 9.23788 3.14567 5.43788 3.72813 2.66288C3.80411 2.28788 3.62684 2.06288 3.29761 2.06288C2.68982 2.06288 1.77813 2.08788 1.37294 2.36288C0.993069 2.61288 0.841121 2.88788 0.739822 3.43788C0.106705 6.61288 -0.323814 10.6129 0.334627 13.6879C0.486575 14.3629 0.638523 14.5129 0.917095 14.6879C1.19567 14.8629 2.43658 15.0129 2.89242 15.0129C3.42424 15.0129 3.93073 14.8629 4.33593 14.1629C5.19697 12.6879 5.90606 11.2129 7.22294 8.38788C7.34956 12.0629 7.88138 14.9629 10.5151 14.9629C13.9593 14.9879 16.1879 6.41288 16.1879 2.28788C16.1879 1.18788 15.6561 1.01288 14.6431 1.01288Z" fill="black"/>
</svg>
